Coordinates
version=1
nRows=21
nColumns=12
inDegrees=yes

Units are S.I. units (second, meters, Newtons, ...)
Angles are in degrees

endheader
time	SC_y	SC_z	SC_x	AC_y	AC_z	AC_x	GH_y	GH_z	GH_yy	EL_x	PS_y
       0.0              -14.72          26.36          78.97          56.22         -15.65         -15.16          37.24          10.32         -140.7          30.68          122.5
 0.0008731              -14.73          26.36          78.96          56.22         -15.64         -15.16          37.23          10.32         -140.7           30.7          122.5
  0.001746              -14.73          26.36          78.96          56.22         -15.64         -15.16          37.22          10.32         -140.7          30.72          122.5
  0.002619              -14.74          26.36          78.95          56.22         -15.64         -15.16          37.21          10.32         -140.6          30.73          122.5
  0.003492              -14.74          26.36          78.95          56.22         -15.64         -15.16           37.2          10.33         -140.6          30.75          122.5
  0.004365              -14.75          26.36          78.94          56.21         -15.64         -15.16          37.18          10.33         -140.5          30.77          122.5
  0.005238              -14.76          26.36          78.94          56.21         -15.63         -15.16          37.17          10.33         -140.5          30.79          122.5
  0.006111              -14.77          26.36          78.93          56.21         -15.63         -15.16          37.16          10.34         -140.4          30.81          122.5
  0.006985              -14.77          26.36          78.92          56.21         -15.63         -15.16          37.14          10.34         -140.4          30.84          122.4
  0.007858              -14.78          26.36          78.92           56.2         -15.62         -15.16          37.13          10.34         -140.3          30.86          122.4
  0.008731              -14.79          26.36          78.91           56.2         -15.62         -15.16          37.11          10.35         -140.3          30.89          122.4
  0.009604               -14.8          26.36           78.9           56.2         -15.62         -15.16          37.09          10.35         -140.2          30.92          122.4
   0.01048              -14.82          26.36          78.89          56.19         -15.61         -15.16          37.07          10.36         -140.2          30.95          122.4
   0.01135              -14.83          26.36          78.88          56.19         -15.61         -15.16          37.05          10.36         -140.1          30.99          122.4
   0.01222              -14.84          26.36          78.87          56.18         -15.61         -15.16          37.03          10.37         -140.0          31.02          122.4
    0.0131              -14.85          26.36          78.86          56.18          -15.6         -15.16           37.0          10.38         -139.9          31.06          122.4
   0.01397              -14.87          26.36          78.85          56.17         -15.59         -15.16          36.98          10.38         -139.8          31.11          122.4
   0.01484              -14.89          26.36          78.84          56.17         -15.59         -15.16          36.95          10.39         -139.7          31.16          122.4
   0.01572              -14.91          26.36          78.83          56.16         -15.58         -15.16          36.91           10.4         -139.6          31.21          122.4
   0.01659              -14.93          26.36          78.81          56.16         -15.58         -15.16          36.88          10.41         -139.5          31.27          122.4
   0.01746              -14.95          26.37          78.79          56.15         -15.57         -15.16          36.84          10.42         -139.4          31.33          122.4
